HIERARCHY
ROOT Hips
{
    OFFSET   0.000000   0.000000   0.000000
    CHANNELS 6 Xposition Yposition Zposition Zrotation Xrotation Yrotation
    JOINT Chest
    {
        OFFSET   0.000000   8.007230   0.000000
        CHANNELS 3 Zrotation Xrotation Yrotation
        JOINT Chest2
        {
            OFFSET   0.000000  22.077100   0.000000
            CHANNELS 3 Zrotation Xrotation Yrotation
            JOINT Neck
            {
                OFFSET   0.000000  23.255100   0.000000
                CHANNELS 3 Zrotation Xrotation Yrotation
                JOINT Head
                {
                    OFFSET   0.000000  14.370100   1.956600
                    CHANNELS 3 Zrotation Xrotation Yrotation
                    End Site
                    {
                        OFFSET   0.000000  19.566000   0.000000
                    }
                }
            }
            JOINT LeftCollar
            {
                OFFSET   3.911900  19.017000  -0.467063
                CHANNELS 3 Zrotation Xrotation Yrotation
                JOINT LeftShoulder
                {
                    OFFSET  10.383700   0.000000   0.000000
                    CHANNELS 3 Zrotation Xrotation Yrotation
                    JOINT LeftElbow
                    {
                        OFFSET  26.662100   0.001193   0.000980
                        CHANNELS 3 Zrotation Xrotation Yrotation
                        JOINT LeftWrist
                        {
                            OFFSET  28.869000  -0.000059  -0.000082
                            CHANNELS 3 Zrotation Xrotation Yrotation
                            JOINT LeftFinger0
                            {
                                OFFSET   2.044650  -2.323450   3.252850
                                CHANNELS 3 Zrotation Xrotation Yrotation
                                JOINT LeftFinger01
                                {
                                    OFFSET   3.088130   0.000000   0.000000
                                    CHANNELS 3 Zrotation Xrotation Yrotation
                                    JOINT LeftFinger02
                                    {
                                        OFFSET   2.639460   0.000000   0.000000
                                        CHANNELS 3 Zrotation Xrotation Yrotation
                                        End Site
                                        {
                                            OFFSET   2.582190   0.000000   0.000000
                                        }
                                    }
                                }
                            }
                            JOINT LeftFinger1
                            {
                                OFFSET   8.364480   0.000000   3.252850
                                CHANNELS 3 Zrotation Xrotation Yrotation
                                JOINT LeftFinger11
                                {
                                    OFFSET   4.646930   0.000000   0.000000
                                    CHANNELS 3 Zrotation Xrotation Yrotation
                                    JOINT LeftFinger12
                                    {
                                        OFFSET   2.323470   0.000000   0.000000
                                        CHANNELS 3 Zrotation Xrotation Yrotation
                                        End Site
                                        {
                                            OFFSET   2.273050   0.000000   0.000000
                                        }
                                    }
                                }
                            }
                            JOINT LeftFinger2
                            {
                                OFFSET   8.364490   0.000016   1.078090
                                CHANNELS 3 Zrotation Xrotation Yrotation
                                JOINT LeftFinger21
                                {
                                    OFFSET   5.111610   0.000000   0.000000
                                    CHANNELS 3 Zrotation Xrotation Yrotation
                                    JOINT LeftFinger22
                                    {
                                        OFFSET   2.788150   0.000016   0.000000
                                        CHANNELS 3 Zrotation Xrotation Yrotation
                                        End Site
                                        {
                                            OFFSET   2.727660   0.000000   0.000000
                                        }
                                    }
                                }
                            }
                            JOINT LeftFinger3
                            {
                                OFFSET   7.899780   0.000015  -1.078090
                                CHANNELS 3 Zrotation Xrotation Yrotation
                                JOINT LeftFinger31
                                {
                                    OFFSET   4.646930   0.000000   0.000000
                                    CHANNELS 3 Zrotation Xrotation Yrotation
                                    JOINT LeftFinger32
                                    {
                                        OFFSET   2.323470   0.000000   0.000000
                                        CHANNELS 3 Zrotation Xrotation Yrotation
                                        End Site
                                        {
                                            OFFSET   2.273050   0.000000   0.000000
                                        }
                                    }
                                }
                            }
                            JOINT LeftFinger4
                            {
                                OFFSET   7.435090   0.000000  -3.252850
                                CHANNELS 3 Zrotation Xrotation Yrotation
                                JOINT LeftFinger41
                                {
                                    OFFSET   3.717550   0.000000   0.000000
                                    CHANNELS 3 Zrotation Xrotation Yrotation
                                    JOINT LeftFinger42
                                    {
                                        OFFSET   1.858770   0.000000   0.000000
                                        CHANNELS 3 Zrotation Xrotation Yrotation
                                        End Site
                                        {
                                            OFFSET   1.818440   0.000000   0.000000
                                        }
                                    }
                                }
                            }
                        }
                    }
                }
            }
            JOINT RightCollar
            {
                OFFSET  -3.911910  19.017000  -0.467062
                CHANNELS 3 Zrotation Xrotation Yrotation
                JOINT RightShoulder
                {
                    OFFSET -10.383700   0.000014   0.000000
                    CHANNELS 3 Zrotation Xrotation Yrotation
                    JOINT RightElbow
                    {
                        OFFSET -26.662100   0.001225   0.001091
                        CHANNELS 3 Zrotation Xrotation Yrotation
                        JOINT RightWrist
                        {
                            OFFSET -28.869000  -0.000020  -0.000085
                            CHANNELS 3 Zrotation Xrotation Yrotation
                            JOINT RightFinger0
                            {
                                OFFSET  -2.044650  -2.323490   3.252850
                                CHANNELS 3 Zrotation Xrotation Yrotation
                                JOINT RightFinger01
                                {
                                    OFFSET  -3.088130   0.000000   0.000000
                                    CHANNELS 3 Zrotation Xrotation Yrotation
                                    JOINT RightFinger02
                                    {
                                        OFFSET  -2.639460   0.000000   0.000000
                                        CHANNELS 3 Zrotation Xrotation Yrotation
                                        End Site
                                        {
                                            OFFSET  -2.582190   0.000000   0.000000
                                        }
                                    }
                                }
                            }
                            JOINT RightFinger1
                            {
                                OFFSET  -8.364480   0.000000   3.252850
                                CHANNELS 3 Zrotation Xrotation Yrotation
                                JOINT RightFinger11
                                {
                                    OFFSET  -4.646930   0.000000   0.000000
                                    CHANNELS 3 Zrotation Xrotation Yrotation
                                    JOINT RightFinger12
                                    {
                                        OFFSET  -2.323470   0.000000   0.000000
                                        CHANNELS 3 Zrotation Xrotation Yrotation
                                        End Site
                                        {
                                            OFFSET  -2.273050   0.000000   0.000000
                                        }
                                    }
                                }
                            }
                            JOINT RightFinger2
                            {
                                OFFSET  -8.364480   0.000000   1.078090
                                CHANNELS 3 Zrotation Xrotation Yrotation
                                JOINT RightFinger21
                                {
                                    OFFSET  -5.111620   0.000000   0.000000
                                    CHANNELS 3 Zrotation Xrotation Yrotation
                                    JOINT RightFinger22
                                    {
                                        OFFSET  -2.788160   0.000000   0.000000
                                        CHANNELS 3 Zrotation Xrotation Yrotation
                                        End Site
                                        {
                                            OFFSET  -2.727660   0.000000   0.000000
                                        }
                                    }
                                }
                            }
                            JOINT RightFinger3
                            {
                                OFFSET  -7.899780   0.000000  -1.078090
                                CHANNELS 3 Zrotation Xrotation Yrotation
                                JOINT RightFinger31
                                {
                                    OFFSET  -4.646930   0.000000   0.000000
                                    CHANNELS 3 Zrotation Xrotation Yrotation
                                    JOINT RightFinger32
                                    {
                                        OFFSET  -2.323470   0.000000   0.000000
                                        CHANNELS 3 Zrotation Xrotation Yrotation
                                        End Site
                                        {
                                            OFFSET  -2.273050   0.000000   0.000000
                                        }
                                    }
                                }
                            }
                            JOINT RightFinger4
                            {
                                OFFSET  -7.435090   0.000000  -3.252850
                                CHANNELS 3 Zrotation Xrotation Yrotation
                                JOINT RightFinger41
                                {
                                    OFFSET  -3.717550   0.000000   0.000000
                                    CHANNELS 3 Zrotation Xrotation Yrotation
                                    JOINT RightFinger42
                                    {
                                        OFFSET  -1.858760   0.000000   0.000000
                                        CHANNELS 3 Zrotation Xrotation Yrotation
                                        End Site
                                        {
                                            OFFSET  -1.818440   0.000000   0.000000
                                        }
                                    }
                                }
                            }
                        }
                    }
                }
            }
        }
    }
    JOINT LeftHip
    {
        OFFSET   9.783030   0.000000   0.000000
        CHANNELS 3 Zrotation Xrotation Yrotation
        JOINT LeftKnee
        {
            OFFSET   0.000063 -41.789100   0.000608
            CHANNELS 3 Zrotation Xrotation Yrotation
            JOINT LeftAnkle
            {
                OFFSET   0.000048 -41.133200  -0.000184
                CHANNELS 3 Zrotation Xrotation Yrotation
                JOINT LeftToe
                {
                    OFFSET   0.000000  -6.358960  14.674500
                    CHANNELS 3 Zrotation Xrotation Yrotation
                    End Site
                    {
                        OFFSET   0.000000   0.000000   3.913200
                    }
                }
            }
        }
    }
    JOINT RightHip
    {
        OFFSET  -9.783030   0.000000   0.000000
        CHANNELS 3 Zrotation Xrotation Yrotation
        JOINT RightKnee
        {
            OFFSET   0.000071 -41.789100   0.001239
            CHANNELS 3 Zrotation Xrotation Yrotation
            JOINT RightAnkle
            {
                OFFSET   0.000037 -41.133200  -0.000166
                CHANNELS 3 Zrotation Xrotation Yrotation
                JOINT RightToe
                {
                    OFFSET   0.000000  -6.358960  14.674500
                    CHANNELS 3 Zrotation Xrotation Yrotation
                    End Site
                    {
                        OFFSET   0.000000   0.000000   3.913200
                    }
                }
            }
        }
    }
}
MOTION
Frames: 4
Frame Time:   0.016667
 -0.027686  89.500800   0.974547  -3.356060 -10.230900  -2.179380   1.233660   7.516430   3.859070   1.975050  15.098200   7.653500   5.208610  -3.513440   0.314536   8.645660  -6.948920 -28.248900  -6.397510  -8.309550  -4.799110 -73.118800  23.275000  -1.379310  -1.609920 -11.497200 -14.605500  12.975500 -20.369400   5.245060  39.804800  28.531200 -68.253500 -22.740500  -0.000000   0.000938  -6.370240   0.000611  -0.003116 -23.413100   3.420470  -7.845170 -19.348100   0.008546  -0.001015 -13.546900   0.000573  -0.009848 -27.559600   0.554508  -1.062390 -29.523300  -0.004333  -0.001999 -19.662500   0.003805  -0.004386 -25.121800   0.508752  -1.085040 -25.126500  -0.004207  -0.002005 -16.733700  -0.003201  -0.010749 -26.608700   0.536803  -1.071440 -39.920600  -0.004529   0.000000 -26.587100   0.001001  -0.009455  11.533400  -6.002810  11.563600  50.668900   6.050470  53.911800 -24.564200 -33.985100  49.010700  46.311300 -65.139300  50.936100 -45.126200  28.656300  63.150900 -10.796400  -0.007785  -0.001460 -10.398200  -0.006600   0.004270  88.995800   5.001620   0.092538  79.978300   0.008324   0.001603  59.983800   0.000396   0.007663  88.148900  -0.000464   0.010832  88.148900   0.005900   0.000877  66.111700   0.000415   0.002073  83.004100  -4.965530  -0.608307  83.030500   0.004175   0.001737  62.272800   0.003360   0.005422  28.525700  -3.075980  -5.637920  43.015900  -0.004813  -0.000567  28.648600  -0.002522  -0.002273   2.471140  13.552300   4.058440   0.886852   0.225425   5.750240  -1.614490  -4.868050   1.744060  -0.000000   0.000000  -0.000000   4.043710  12.778600  -7.617010   0.192771   1.723660  -3.799140  -1.817140  -4.752130   1.659860  -0.000000   0.000000  -0.000000
 -0.049876  89.500700   1.011730  -3.349060 -10.215200  -2.184450   1.232850   7.504420   3.864330   1.973880  15.074200   7.664030   5.075830  -3.620600   0.314572   8.430430  -7.169780 -27.937600  -6.411800  -8.308930  -4.790340 -73.116800  23.282900  -1.402090  -1.603360 -11.513000 -14.629800  12.986300 -20.397800   5.194370  39.824500  28.564500 -68.313200 -22.714700  -0.000048   0.000819  -6.357370   0.000566  -0.003101 -23.409100   3.434350  -7.877870 -19.347400   0.008550  -0.001000 -13.545000   0.000563  -0.009847 -27.567100   0.572909  -1.097160 -29.563500  -0.004334  -0.001969 -19.689300   0.003768  -0.004400 -25.123000   0.525476  -1.120650 -25.128100  -0.004209  -0.001980 -16.734400  -0.003200  -0.010734 -26.620100   0.554693  -1.106490 -39.938300  -0.004528   0.000000 -26.598900   0.000973  -0.009500  11.529400  -5.977030  11.557300  50.655700   6.051730  53.913900 -24.553200 -33.990100  49.011300  46.598000 -65.140600  51.201400 -45.239200  28.766500  63.212400 -10.799800  -0.007591  -0.001334 -10.399900  -0.006592   0.004440  88.995700   5.001640   0.092581  80.020300   0.008613   0.001460  60.015300   0.000422   0.007713  88.351600  -0.000485   0.010912  88.351600   0.005954   0.000817  66.263700   0.000418   0.002117  83.117400  -4.965600  -0.598508  83.143400   0.004102   0.001601  62.357500   0.003347   0.005495  28.522200  -3.104860  -5.690500  43.014200  -0.004809  -0.000670  28.647400  -0.002482  -0.002302   2.475610  13.540700   4.039000   0.885026   0.276655   5.765160  -1.629220  -4.911510   1.752910  -0.000000   0.000000   0.000000   4.047160  12.796500  -7.603610   0.192712   1.711840  -3.808370  -1.814030  -4.770400   1.666520  -0.000000   0.000000  -0.000000
 -0.069946  89.500300   1.049380  -3.342930 -10.197200  -2.192730   1.232240   7.489600   3.874500   1.971810  15.044700   7.684850   4.948960  -3.714860   0.314598   8.224260  -7.364990 -27.606000  -6.429520  -8.308900  -4.784650 -73.113400  23.290700  -1.443650  -1.582870 -11.528400 -14.661300  13.005900 -20.410400   5.142610  39.838100  28.595000 -68.368700 -22.699500  -0.000096   0.000701  -6.349750   0.000504  -0.003086 -23.405700   3.443100  -7.899120 -19.344700   0.008553  -0.000984 -13.541300   0.000553  -0.009846 -27.576600   0.585494  -1.120930 -29.612600  -0.004335  -0.001940 -19.722000   0.003731  -0.004414 -25.124000   0.536913  -1.145000 -25.129400  -0.004210  -0.001955 -16.735000  -0.003199  -0.010721 -26.628200   0.566876  -1.130480 -39.950700  -0.004528   0.000000 -26.607200   0.000944  -0.009546  11.524900  -5.955630  11.551700  50.629800   6.062140  53.917300 -24.547900 -33.999200  48.995600  46.909200 -65.082600  51.474600 -45.374200  28.931200  63.338400 -10.823500  -0.007409  -0.001241 -10.411800  -0.006588   0.004614  88.995700   5.001670   0.092620  80.056400   0.008898   0.001327  60.042400   0.000450   0.007763  88.555300  -0.000507   0.010987  88.555300   0.006011   0.000768  66.416400   0.000420   0.002161  83.283800  -4.965790  -0.584072  83.309100   0.004029   0.001469  62.481800   0.003341   0.005564  28.516900  -3.141800  -5.760110  43.012500  -0.004800  -0.000776  28.646300  -0.002436  -0.002331   2.478860  13.525000   4.026830   0.885659   0.318444   5.779910  -1.642040  -4.954300   1.761700   0.000000   0.000000   0.000000   4.050200  12.812500  -7.589440   0.192530   1.699600  -3.823130  -1.808120  -4.786720   1.672550   0.000000   0.000000  -0.000000
 -0.085511  89.497000   1.086010  -3.336590 -10.172600  -2.200290   1.231710   7.469350   3.886110   1.970480  15.004300   7.708360   4.830290  -3.793890   0.314425   8.031290  -7.529720 -27.252600  -6.453860  -8.309050  -4.787680 -73.111100  23.289400  -1.483460  -1.552550 -11.507100 -14.699600  13.036900 -20.405600   5.086100  39.820100  28.580300 -68.354700 -22.724100  -0.000164   0.000594  -6.362050   0.000482  -0.003072 -23.403400   3.442640  -7.898490 -19.342100   0.008562  -0.000975 -13.539200   0.000547  -0.009844 -27.586500   0.585066  -1.119980 -29.663000  -0.004335  -0.001914 -19.755500   0.003688  -0.004420 -25.124400   0.536484  -1.144040 -25.129800  -0.004209  -0.001932 -16.735500  -0.003198  -0.010706 -26.631100   0.566427  -1.129520 -39.955100  -0.004526  -0.000034 -26.610200   0.000902  -0.009572  11.517700  -5.932210  11.536100  50.578900   6.097950  53.948500 -24.621600 -34.013800  48.896700  46.917800 -64.945400  51.434100 -45.349800  29.035200  63.536300 -10.890400  -0.007226  -0.001249 -10.445300  -0.006591   0.004793  88.995700   5.001690   0.092648  80.067500   0.009178   0.001211  60.050700   0.000473   0.007807  88.652500  -0.000523   0.011050  88.652500   0.006061   0.000720  66.489300   0.000441   0.002205  83.386300  -4.966790  -0.575212  83.411200   0.003966   0.001329  62.558400   0.003339   0.005639  28.520600  -3.189160  -5.845260  43.023300  -0.004774  -0.000881  28.653500  -0.002389  -0.002363   2.478260  13.520200   4.028900   0.893350   0.322401   5.785580  -1.649640  -4.978430   1.765980   0.000000   0.000000  -0.000000   4.047690  12.822000  -7.588900   0.192724   1.689010  -3.834360  -1.798380  -4.803320   1.690770   0.000000   0.000000   0.000000
